<?xml version="1.0" encoding="UTF-8"?>
<!DOCTYPE svg PUBLIC "-//W3C//DTD SVG 1.1//EN" "http://www.w3.org/Graphics/SVG/1.1/DTD/svg11.dtd">
<!-- Creator: CorelDRAW X8 -->
<svg xmlns="http://www.w3.org/2000/svg" xml:space="preserve" width="49.22mm" height="10.5807mm" version="1.1" style="shape-rendering:geometricPrecision; text-rendering:geometricPrecision; image-rendering:optimizeQuality; fill-rule:evenodd; clip-rule:evenodd"
viewBox="0 0 3990 858"
 xmlns:xlink="http://www.w3.org/1999/xlink">
 <defs>
  <style type="text/css">
   <![CDATA[
    .fil0 {fill:#DED5DA}
   ]]>
  </style>
 </defs>
 <g id="Capa_x0020_1">
  <metadata id="CorelCorpID_0Corel-Layer"/>
  <g id="_3156416839328">
   <g>
    <path class="fil0" d="M3613 625c34,13 91,24 168,24l0 0 1 0c77,0 134,-11 168,-24l-7 -20c0,-116 -115,-127 -127,-127 0,-13 -22,-10 -29,-10 0,-12 7,-16 7,-16l14 -10 -3 -13 -47 0 -3 13 14 10c0,0 7,4 7,16 -7,0 -29,-3 -29,10 -12,0 -127,11 -127,127l-7 20z"/>
    <path class="fil0" d="M3962 640c-32,16 -93,29 -180,29l-1 0 0 0c-87,0 -149,-13 -181,-29 -15,17 -27,36 -27,52 0,25 73,57 208,57l0 0 1 0c135,0 208,-32 208,-57 0,-16 -13,-35 -28,-52z"/>
    <g>
     <path class="fil0" d="M66 717c16,0 31,-2 46,-8 15,-5 28,-13 41,-24 13,-11 25,-23 34,-40l0 6 -1 9 0 10c-1,4 -1,10 -1,16 0,6 1,10 1,15 0,5 0,9 1,12 1,3 3,4 3,4 3,0 8,0 13,0 6,0 13,-1 21,-2 7,-1 14,-2 22,-3 6,-2 13,-3 17,-6l1 -21c0,-9 0,-19 1,-32 1,-12 3,-24 4,-36 1,-7 2,-15 3,-25l6 -38 8 -47 8 -52 8 -54 8 -49 7 -43c2,-9 2,-16 2,-20 -1,-4 -4,-6 -8,-6 -4,0 -9,1 -16,1 -6,1 -13,1 -20,2l-21 3 -17 3c0,6 -1,13 -2,22 -1,9 -2,20 -4,31l-5 35c-1,12 -3,22 -5,32 -1,10 -3,18 -5,24 -5,-3 -12,-6 -20,-8 -8,-2 -17,-2 -27,-2 -21,0 -40,4 -58,10 -17,7 -33,17 -47,29 -14,13 -25,27 -35,43 -10,17 -16,34 -21,53 -5,19 -8,38 -8,58 0,21 3,38 8,53 6,15 13,26 24,34 9,7 21,11 34,11l0 0zm43 -66c-7,0 -13,-3 -17,-11 -4,-6 -7,-17 -7,-34 0,-10 2,-21 3,-33 3,-11 6,-23 11,-33 5,-11 10,-21 18,-30 6,-9 15,-16 24,-21 10,-5 21,-8 33,-8 8,0 16,1 21,4 6,1 11,5 15,9l-2 6 -1 8 -1 6c-3,19 -8,36 -14,50 -6,15 -13,28 -20,39 -7,11 -15,20 -23,27 -7,7 -14,12 -22,16 -6,3 -13,5 -18,5l0 0zm380 -225c-19,0 -37,3 -53,9 -17,8 -32,17 -44,29 -13,11 -24,25 -34,40 -9,16 -16,33 -20,50 -5,18 -7,35 -7,54 -1,22 2,41 9,58 7,17 17,29 31,38 15,9 34,13 58,13 19,0 35,-2 50,-6 15,-4 28,-9 37,-15 10,-7 17,-13 23,-19 4,-4 7,-9 9,-15 2,-5 4,-12 4,-21 0,-5 -1,-11 -2,-14 -1,-4 -3,-8 -5,-10 -7,6 -15,11 -24,17 -9,6 -18,10 -30,15 -10,3 -22,5 -35,5 -11,0 -19,-2 -26,-5 -6,-5 -10,-9 -13,-17 -3,-6 -4,-13 -4,-22l0 -8c9,0 19,-1 30,-3 12,-2 23,-4 34,-8 13,-3 24,-8 34,-13 12,-6 22,-12 30,-20 9,-8 16,-17 21,-28 5,-10 8,-22 8,-35 0,-14 -3,-27 -11,-38 -6,-9 -16,-18 -27,-23 -12,-6 -26,-8 -42,-8l-1 0zm-11 51c5,0 9,1 12,3 4,2 6,6 8,9 1,4 2,7 2,10 0,4 -1,8 -3,14 -2,6 -6,11 -12,16 -6,6 -15,11 -26,15 -12,4 -26,6 -44,8 4,-18 9,-32 16,-44 7,-10 14,-18 22,-24 8,-5 16,-8 24,-7l1 0zm247 -51c-17,0 -32,2 -45,7 -14,5 -25,11 -36,20 -8,8 -17,19 -22,30 -5,12 -8,24 -8,37 0,9 1,17 4,25 2,8 6,15 13,24 6,7 16,16 27,24 12,9 21,15 29,21 6,5 11,9 13,13 3,5 4,8 4,12 0,5 -3,10 -8,14 -7,4 -14,6 -24,6 -8,0 -16,-1 -24,-2 -8,-2 -17,-4 -23,-6 -7,-2 -14,-5 -19,-7 -4,-2 -6,-1 -9,2 -3,3 -4,7 -6,13 -2,6 -2,11 -2,18 1,6 3,11 6,17 2,4 7,7 14,11 5,4 14,7 23,9 9,3 19,3 30,3 19,0 35,-2 51,-7 14,-6 26,-12 37,-22 10,-8 18,-18 23,-30 6,-11 8,-23 8,-36 1,-8 0,-16 -4,-25 -2,-7 -8,-15 -14,-22 -7,-8 -16,-16 -28,-24 -10,-7 -18,-13 -24,-18 -7,-4 -11,-8 -15,-12 -3,-3 -5,-6 -6,-9 -2,-2 -2,-5 -2,-7 0,-6 1,-10 4,-13 3,-3 7,-6 11,-7 5,-2 10,-3 15,-3 6,0 12,1 16,3 5,1 10,1 15,4 6,1 12,1 16,0 5,-3 9,-6 12,-10 3,-5 5,-10 7,-16 2,-6 3,-11 3,-15 -4,-5 -10,-9 -17,-13 -7,-3 -15,-5 -23,-7 -7,-2 -15,-2 -22,-2l0 0zm206 69l3 -22 3 -23c1,-8 2,-15 2,-20 0,-6 0,-10 0,-12 -4,-1 -9,-1 -15,0 -6,1 -13,2 -19,4 -8,1 -14,3 -21,4 -7,2 -13,4 -17,6 -5,2 -9,3 -10,4 0,5 -1,11 -1,18 -1,7 -2,15 -3,24l-3 26 -4 24c-7,52 -15,105 -23,158 -8,53 -17,105 -26,157 4,0 10,0 16,-1 7,0 12,-1 19,-1 7,-1 13,-2 20,-3 6,-1 10,-2 14,-3 5,-2 10,-5 14,-10 2,-4 4,-9 5,-18 2,-9 3,-20 5,-31l6 -35 7 -41c7,6 17,11 28,13 10,4 21,4 33,4 19,0 36,-3 53,-10 15,-7 29,-17 42,-29 13,-12 23,-27 32,-44 9,-16 16,-34 20,-53 5,-19 8,-39 8,-59 0,-12 -1,-23 -4,-35 -3,-11 -7,-22 -12,-31 -5,-9 -14,-17 -22,-21 -9,-6 -21,-9 -35,-9 -12,0 -25,2 -36,5 -11,4 -22,10 -32,17 -9,6 -17,13 -26,21 -8,9 -14,17 -21,26l0 0zm81 -5c7,0 13,5 17,11 3,6 5,16 5,29 0,10 0,20 -2,32 -3,11 -5,23 -9,34 -4,10 -9,21 -16,30 -7,9 -15,16 -25,22 -9,5 -20,8 -34,8 -5,0 -11,-1 -17,-3 -7,-3 -13,-8 -18,-13 0,-3 0,-4 1,-7l1 -8c4,-21 9,-40 16,-56 8,-16 17,-30 26,-42 8,-11 18,-20 27,-27 10,-6 19,-10 27,-10l1 0zm301 -64c-18,0 -36,3 -53,9 -17,8 -31,17 -44,29 -13,11 -24,25 -33,40 -9,16 -16,33 -21,50 -4,18 -7,35 -7,54 0,22 3,41 10,58 6,17 17,29 31,38 14,9 34,13 57,13 20,0 37,-2 51,-6 15,-4 27,-9 37,-15 9,-7 17,-13 22,-19 4,-4 8,-9 9,-15 3,-5 4,-12 4,-21 0,-5 0,-11 -1,-14 -2,-4 -3,-8 -6,-10 -6,6 -14,11 -23,17 -9,6 -19,10 -30,15 -11,3 -23,5 -36,5 -11,0 -19,-2 -25,-5 -6,-5 -11,-9 -14,-17 -2,-6 -4,-13 -4,-22l0 -8c9,0 19,-1 31,-3 11,-2 22,-4 35,-8 11,-3 22,-8 33,-13 11,-6 21,-12 30,-20 9,-8 15,-17 20,-28 6,-10 8,-22 8,-35 0,-14 -3,-27 -10,-38 -7,-9 -17,-18 -28,-23 -12,-6 -26,-8 -42,-8l-1 0zm-10 51c5,0 9,1 12,3 3,2 5,6 7,9 2,4 3,7 3,10 0,4 -1,8 -3,14 -2,6 -6,11 -13,16 -6,6 -14,11 -26,15 -10,4 -25,6 -43,8 3,-18 9,-32 16,-44 6,-10 13,-18 22,-24 8,-5 16,-8 24,-7l1 0zm250 -51c-18,0 -34,2 -49,9 -15,5 -27,13 -38,24 -11,10 -20,23 -26,37 -6,15 -8,31 -9,48 1,11 1,22 4,30 3,9 6,15 10,22 4,6 8,10 13,14 4,4 8,7 12,9 -7,4 -13,8 -21,13 -6,4 -11,9 -16,14 -4,5 -6,10 -6,14 0,6 1,13 4,19 2,5 5,9 7,13 3,4 6,7 8,8 -11,7 -21,13 -30,20 -9,6 -16,13 -21,20 -5,7 -7,13 -8,18 0,11 2,21 7,32 6,10 13,20 24,30 11,8 25,16 42,21 18,6 39,9 64,9 21,0 40,-2 57,-8 17,-5 31,-14 43,-23 12,-10 22,-20 27,-33 7,-13 10,-26 10,-39 0,-10 -2,-19 -6,-29 -3,-9 -9,-18 -18,-25 -8,-8 -20,-14 -34,-19l-19 -4 -22 -6 -21 -5c-7,-2 -11,-3 -15,-4 -9,-2 -15,-5 -19,-7 -3,-4 -6,-6 -6,-10 0,-2 1,-2 2,-4l4 -4 6 1c3,1 6,1 11,1 4,0 8,1 13,1 10,0 22,-1 32,-4 12,-2 22,-6 33,-12 10,-5 19,-12 27,-21 8,-8 14,-19 19,-31 5,-12 6,-26 7,-41 0,-4 -1,-6 -1,-11 0,-4 0,-8 -1,-12 -1,-4 -2,-8 -3,-11 3,0 7,0 12,0l15 2c6,0 10,0 13,0 0,-3 0,-8 0,-13l2 -16 1 -16c1,-5 1,-9 2,-13l-15 3 -18 2 -16 3c-5,1 -9,1 -11,1 -3,0 -7,0 -11,-1 -4,-1 -8,-3 -13,-4 -3,-1 -7,-3 -12,-5 -5,-2 -12,-3 -19,-5 -7,-2 -16,-2 -26,-2l-1 0zm30 88c0,13 -2,26 -6,36 -4,11 -10,20 -17,26 -7,6 -15,9 -24,9 -9,0 -16,-3 -21,-9 -6,-7 -8,-17 -8,-30 0,-10 1,-19 3,-28 3,-9 6,-17 10,-23 4,-8 9,-13 15,-17 6,-4 12,-6 20,-6 10,0 17,4 22,11 4,7 6,17 6,30l0 1zm-45 281c-10,0 -21,-1 -30,-3 -9,-2 -18,-6 -25,-10 -8,-4 -13,-9 -17,-15 -4,-6 -7,-12 -7,-19 0,-3 2,-7 5,-10 3,-4 6,-8 11,-10 4,-3 8,-6 11,-7 3,0 8,1 14,2 8,2 15,3 22,5 8,2 16,3 22,6 8,1 13,3 18,5 7,3 13,6 16,8 4,4 7,7 8,10 1,3 2,7 2,11 0,5 -2,10 -7,14 -4,4 -9,8 -17,10 -7,2 -16,3 -25,3l-1 0zm163 -170c0,21 3,38 8,52 5,14 12,24 22,31 9,6 19,9 30,9 17,0 34,-3 50,-9 15,-7 30,-16 42,-27 13,-11 24,-24 32,-37l-1 13c0,5 -1,9 -1,14 0,8 -1,16 -1,22 1,7 1,13 2,17 1,5 1,7 3,7 3,0 7,0 14,0 6,0 12,-1 19,-2 8,-1 15,-2 22,-3 7,-2 13,-3 19,-6 -1,-3 -1,-9 -1,-16 0,-7 0,-16 1,-26 0,-10 1,-20 2,-32 3,-13 4,-26 6,-41l6 -45c3,-16 5,-30 7,-44 2,-14 4,-27 6,-37 1,-11 4,-19 4,-25 -8,-2 -17,-4 -28,-6 -11,-3 -22,-4 -34,-6 -11,-2 -23,-2 -33,-2 -19,0 -36,1 -51,4 -16,4 -31,9 -45,16 -14,7 -27,17 -40,29 -11,11 -21,24 -28,37 -8,13 -15,25 -19,39 -4,13 -8,26 -10,39 -2,12 -3,24 -3,35l0 0zm104 26c-6,0 -11,-3 -15,-10 -3,-5 -6,-16 -6,-31 0,-8 2,-19 3,-30 3,-12 6,-22 10,-34 4,-11 11,-22 17,-32 8,-10 16,-16 22,-22 7,-5 15,-8 22,-10 7,-1 15,-3 23,-2 4,0 9,0 13,1 4,1 8,1 12,3l-1 8 -1 6c-3,21 -7,39 -13,56 -6,16 -13,31 -20,43 -7,12 -15,22 -23,30 -8,8 -15,14 -23,18 -8,4 -13,6 -20,6l0 0zm327 -137c2,-11 2,-23 3,-33 1,-11 1,-21 1,-29 0,-8 -1,-14 -2,-19 0,-5 -1,-7 -3,-7 -2,0 -5,0 -10,1 -4,0 -9,2 -16,3 -6,1 -12,3 -18,4l-18 4c-4,1 -8,2 -10,3 1,3 1,7 1,11 0,5 0,11 0,17 0,5 -1,10 -1,16l-1 13c-1,13 -3,27 -5,43 -1,15 -4,31 -6,47 -3,15 -5,31 -8,47l-7 44c-2,13 -5,25 -6,36 5,0 11,-1 18,-1 7,-1 13,-1 21,-3 7,-1 13,-2 20,-3 6,-2 10,-3 14,-5 5,-2 8,-4 10,-7 3,-4 4,-9 5,-16 6,-27 11,-52 17,-72 7,-19 13,-36 20,-49 6,-13 13,-24 19,-32 6,-7 12,-12 18,-15 6,-4 10,-5 14,-5 7,0 12,0 17,2 6,2 10,4 14,7 3,-4 8,-9 11,-16 4,-6 7,-14 9,-21 4,-8 5,-15 7,-23 1,-7 1,-13 0,-19 -2,-2 -5,-4 -8,-6 -3,-1 -7,-3 -11,-4 -3,-1 -6,-1 -9,-1 -6,0 -14,0 -22,3 -8,2 -16,7 -25,14 -9,6 -17,15 -26,26 -8,13 -17,27 -25,45l-2 0z"/>
     <path class="fil0" d="M2632 429c-21,0 -40,3 -58,10 -17,6 -33,15 -47,26 -13,12 -25,25 -35,40 -10,15 -17,32 -22,50 -5,18 -7,38 -7,57 0,25 4,45 12,62 7,15 18,27 33,35 14,7 31,11 50,11 17,0 32,-3 46,-6 13,-4 25,-8 35,-14 9,-5 17,-12 24,-18 6,-5 9,-11 11,-16 3,-7 3,-13 3,-19 0,-5 0,-9 -1,-12 -1,-3 -3,-7 -4,-9 -2,-2 -3,-3 -4,-4 -4,3 -9,7 -15,11 -6,4 -12,8 -19,11 -7,5 -14,8 -22,10 -8,3 -16,3 -23,3 -10,0 -19,-2 -25,-7 -6,-5 -11,-11 -13,-21 -3,-9 -4,-19 -4,-31 0,-9 1,-19 2,-30 2,-10 5,-20 9,-29 4,-10 9,-19 16,-27 6,-7 14,-13 23,-18 10,-4 20,-7 32,-7 7,0 14,1 19,3 7,0 13,3 19,5 3,0 6,-2 9,-5 3,-4 5,-8 8,-13 3,-5 5,-10 6,-16 2,-5 2,-10 2,-14 -4,-4 -10,-8 -16,-11 -7,-2 -13,-4 -21,-6 -8,0 -15,-1 -23,-1l0 0zm251 0c-26,1 -50,5 -70,14 -20,10 -38,23 -52,39 -15,17 -25,36 -32,58 -8,21 -12,45 -12,69 0,36 9,64 27,83 17,18 44,28 81,28 26,0 49,-5 69,-15 20,-9 38,-22 52,-38 14,-17 26,-35 33,-57 7,-22 11,-45 11,-70 0,-22 -3,-41 -11,-58 -8,-17 -19,-30 -36,-39 -16,-9 -35,-14 -60,-14l0 0zm-10 53c5,0 10,2 14,4 5,4 8,7 11,12 2,5 4,9 5,16 1,5 1,11 1,17 0,19 -1,36 -4,53 -3,16 -8,30 -14,43 -6,12 -13,22 -21,28 -8,7 -17,11 -27,11 -8,0 -15,-3 -20,-7 -4,-5 -8,-10 -9,-19 -3,-7 -3,-16 -3,-25 0,-13 0,-26 2,-39 2,-13 5,-25 9,-36 3,-11 8,-21 14,-30 5,-9 11,-15 17,-20 8,-5 16,-8 24,-8l1 0zm261 28l2 -13c3,-24 5,-40 5,-51 0,-11 -2,-17 -6,-17 -1,0 -4,1 -8,1l-18 4 -19 4c-6,1 -12,2 -18,4 -5,1 -9,2 -10,3 0,5 0,16 -2,33 -2,17 -5,42 -9,72 -2,15 -5,30 -7,45l-7 46 -8 42 -6 34c14,0 26,0 35,-2 10,-1 17,-2 24,-4 6,-2 10,-4 15,-7 2,-1 4,-4 6,-7 2,-3 3,-8 5,-15 6,-30 14,-57 21,-78 8,-22 15,-40 23,-54 9,-14 17,-25 25,-34 7,-7 14,-13 21,-16 6,-3 12,-5 17,-5 5,0 9,2 11,5 3,4 4,8 4,15 0,5 0,11 -1,18 -1,13 -3,27 -5,43 -3,14 -5,30 -8,46 -3,16 -6,32 -9,48l-10 47c14,0 26,-1 36,-2 9,-2 18,-3 23,-5 7,-1 12,-3 15,-5 2,-1 5,-3 7,-7 3,-4 4,-9 6,-16 5,-30 12,-57 19,-79 8,-21 15,-40 23,-53 8,-14 16,-25 23,-34 9,-8 16,-13 22,-16 7,-3 12,-5 18,-5 4,0 7,2 10,5 2,3 4,8 5,14 0,6 0,12 -2,19 -2,8 -3,17 -6,26 -1,9 -3,19 -4,30l-6 30 -5 27c-1,8 -2,17 -3,25 -1,9 -1,17 -2,24 0,7 0,14 1,18 0,4 1,6 2,7l13 -1c7,-1 14,-1 22,-2 8,0 16,-2 23,-4 7,0 14,-3 19,-4 0,-11 0,-22 2,-35 1,-13 2,-27 6,-42l5 -33 5 -35c2,-12 4,-23 6,-35 2,-11 3,-23 3,-35 -1,-12 -2,-22 -5,-33 -5,-9 -9,-17 -18,-22 -7,-7 -17,-10 -30,-10 -15,0 -28,2 -40,7 -12,5 -24,11 -33,19 -11,8 -20,16 -28,26 -7,9 -14,19 -21,30l-2 0c1,-2 1,-3 1,-4l0 -3c1,-14 0,-26 -3,-37 -3,-11 -8,-21 -16,-28 -8,-6 -18,-9 -31,-10 -15,0 -28,3 -40,8 -12,5 -23,11 -33,19 -10,9 -19,17 -27,26 -8,10 -15,19 -21,28l-2 0z"/>
     <path class="fil0" d="M2348 546c-10,0 -19,3 -26,7 -8,4 -13,10 -17,19 -4,8 -7,17 -7,28 0,9 3,16 6,23 3,6 8,11 14,14 6,4 13,6 21,6 10,0 18,-3 26,-7 7,-4 13,-10 17,-18 4,-8 5,-17 6,-27 0,-8 -2,-15 -5,-23 -3,-6 -7,-12 -13,-16 -5,-3 -13,-6 -22,-6l0 0z"/>
     <g>
      <path class="fil0" d="M2402 255l18 -19 56 0 87 -106 -159 -74 36 -25 182 40c0,0 101,-91 126,-67 25,25 -70,123 -70,123l31 175 -23 33 -67 -149 -109 84 0 56 -20 19 -27 -64 -61 -26z"/>
     </g>
     <path class="fil0" d="M2343 503c15,0 30,4 43,11 23,-73 39,-118 81,-171l-59 0c-41,53 -60,95 -78,164 5,0 9,-4 13,-4z"/>
     <path class="fil0" d="M2345 692c-13,0 -25,-2 -36,-6 4,69 17,113 47,172l60 0c-30,-58 -43,-102 -47,-169 -8,3 -16,3 -24,3z"/>
    </g>
   </g>
  </g>
 </g>
</svg>
