<?xml version="1.0" encoding="UTF-8"?>
<svg width="134px" height="27px" viewBox="0 0 134 27" version="1.1" xmlns="http://www.w3.org/2000/svg" xmlns:xlink="http://www.w3.org/1999/xlink">
    <!-- Generator: Sketch 47 (45396) - http://www.bohemiancoding.com/sketch -->
    <title>equifax</title>
    <desc>Created with Sketch.</desc>
    <defs></defs>
    <g id="Page-1" stroke="none" stroke-width="1" fill="none" fill-rule="evenodd">
        <g id="clients" transform="translate(-733.000000, -17.000000)" fill="#DED5DA">
            <g id="equifax" transform="translate(733.000000, 17.000000)">
                <path d="M21.059266,3.98277394 L11.5190665,3.98277394 L10.8122261,7.32524202 L19.2928803,7.32524202 L18.3742739,11.3087314 L9.89361968,11.3087314 L8.9750133,15.5755293 L19.0102872,15.5755293 L18.0916809,19.7715 L0,19.7715 L1.97886702,10.9531649 L4.31115426,0 L21.9077606,0 L21.059266,3.98277394 Z M35.5700529,11.1173569 L47.9368986,26.0532958 L39.6687258,26.0532958 L34.3688534,19.580841 C32.3434837,19.9879181 30.3438694,20.123849 28.2827284,20.1531814 C26.259505,20.181083 22.7796752,19.7110484 21.2243401,18.3009447 C19.1324359,16.4043516 20.289279,12.5346149 20.591904,10.2287984 C20.8365795,8.33864416 21.4597151,5.92122129 22.5671939,4.36087821 C24.7141859,1.33605906 28.7699332,0.89392608 32.177505,1.01841012 C34.6643242,1.10855374 37.9824678,1.04201916 40.2346274,2.2983064 C41.8057018,3.17899523 42.5225582,4.52399523 42.4252603,6.35262289 C42.3401247,7.9136814 41.9359093,9.83245268 41.7184199,11.1173569 L35.5700529,11.1173569 Z M68.8160798,2 L76.0948191,2 L72.2079122,19.5665585 L65,19.5665585 L66.9080399,10.7482234 L68.8160798,2 Z M93.7276941,5.48483777 L85.3886941,5.48483777 L84.6818537,8.75647872 L91.7488271,8.75647872 L91.3252952,10.747508 L91.0419867,12.0281197 L83.9049016,12.0281197 L82.2794548,19.5665585 L75,19.5665585 L78.8160798,2 L94.5761888,2 L93.7276941,5.48483777 Z M46.190633,2 L53.5401995,2 L50.7836649,14.446258 C50.4474149,15.9672527 51.8668191,16.761375 53.083758,16.867258 C54.6483936,17.0031888 56.0534894,16.0201941 56.4376729,14.3747154 L59.3351463,2 L66.6138856,2 L63.7164122,15.157391 C62.4758644,18.587141 59.6012846,19.9342872 56.4298032,20.2726835 C54.4616676,20.4815878 52.3790638,20.3034468 50.5010718,19.9936676 L44,12.1704894 L46.190633,2 Z M109.967306,2 L119.224912,2 L122.051559,6.55153723 L126.64459,2 L133.711564,2 L124.454673,10.1787447 L130.532213,19.5665585 L121.486372,19.5665585 L118.518072,14.2323457 L113.42925,19.5665585 L102.617739,19.5665585 L102.193492,15.7261543 L94.7029867,15.7261543 L92.087391,19.5665585 L87,19.5665585 L99.296734,2 L108.129378,2 L109.825652,16.2240904 L115.691426,10.8183351 L109.967306,2 Z M34.6514465,11.2597266 C35.2152018,8.71066544 36.525146,4.77367874 32.8142337,4.50324789 C29.1476779,4.23639416 27.9250157,7.57671597 27.4428189,10.7617904 C27.1029917,13.0039341 25.9168162,16.8507771 29.492513,16.8786787 C33.0546167,16.9058649 33.9753694,14.3267559 34.6514465,11.2597266 Z M97.1053856,11.9565771 L101.76996,11.9565771 L101.062404,5.98205851 L97.1053856,11.9565771 Z" id="Combined-Shape"></path>
            </g>
        </g>
    </g>
</svg>