<?xml version="1.0" encoding="UTF-8"?>
<svg width="51px" height="46px" viewBox="0 0 51 46" version="1.1" xmlns="http://www.w3.org/2000/svg" xmlns:xlink="http://www.w3.org/1999/xlink">
    <!-- Generator: Sketch 47 (45396) - http://www.bohemiancoding.com/sketch -->
    <title>McDonald's_Golden_Arches</title>
    <desc>Created with Sketch.</desc>
    <defs></defs>
    <g id="Page-1" stroke="none" stroke-width="1" fill="none" fill-rule="evenodd">
        <g id="clients" transform="translate(0.000000, -1.000000)" fill-rule="nonzero" fill="#DED5DA">
            <g id="McDonald's_Golden_Arches" transform="translate(0.000000, 1.897968)">
                <path d="M44.3213503,44.2527177 L50.6796875,44.2527177 C50.6796875,19.8105215 44.2652473,0.024872319 36.4108308,0.024872319 C31.9225928,0.024872319 27.9579826,5.95308669 25.3398438,15.2661806 C22.7217049,5.95308669 18.7570947,0.024872319 14.3062586,0.024872319 C6.45184214,0.024872319 0.0561029751,19.7918205 0.0561029751,44.2340167 L6.41444015,44.2340167 C6.41444015,21.5310128 9.9115256,3.16663892 14.2688567,3.16663892 C18.6261877,3.16663892 22.1606752,20.1471394 22.1606752,41.0922501 L28.4816104,41.0922501 C28.4816104,20.1471394 32.0347988,3.16663892 36.3921298,3.16663892 C40.7868629,3.16663892 44.3213503,21.5497138 44.3213503,44.2527177 Z" id="Shape"></path>
            </g>
        </g>
    </g>
</svg>