<?xml version="1.0" encoding="UTF-8"?>
<svg width="174px" height="38px" viewBox="0 0 174 38" version="1.1" xmlns="http://www.w3.org/2000/svg" xmlns:xlink="http://www.w3.org/1999/xlink">
    <!-- Generator: Sketch 47 (45396) - http://www.bohemiancoding.com/sketch -->
    <title>microsoft</title>
    <desc>Created with Sketch.</desc>
    <defs></defs>
    <g id="Page-1" stroke="none" stroke-width="1" fill="none" fill-rule="evenodd">
        <g id="minami_navigator_update" transform="translate(-637.000000, -3687.000000)" fill-rule="nonzero" fill="#DED5DA">
            <g id="clients" transform="translate(158.000000, 3679.000000)">
                <g id="microsoft" transform="translate(479.000000, 8.000000)">
                    <path d="M61.2132412,21.3327571 L60.1796217,24.2613456 L60.0934867,24.2613456 C59.9212168,23.6009776 59.6053887,22.5960698 59.0885789,21.3901804 L53.5472302,7.46502941 L48.120728,7.46502941 L48.120728,29.6591361 L51.7096845,29.6591361 L51.7096845,15.9636783 C51.7096845,15.1023287 51.7096845,14.1261326 51.6809728,12.9202432 C51.6522612,12.3172985 51.5948379,11.8579121 51.5661262,11.5133723 L51.6522612,11.5133723 C51.8245311,12.3747218 52.0255126,13.0063782 52.1690709,13.4083413 L58.8301741,29.6017128 L61.3567994,29.6017128 L67.9604793,13.264783 C68.1040375,12.8915316 68.2475958,12.1450286 68.391154,11.5133723 L68.477289,11.5133723 C68.391154,13.1499364 68.3337307,14.6142307 68.3050191,15.5042918 L68.3050191,29.5730011 L72.1236688,29.5730011 L72.1236688,7.40760611 L66.8981482,7.40760611 L61.2132412,21.3327571 L61.2132412,21.3327571 Z M75.7413368,13.6667461 L79.4738516,13.6667461 L79.4738516,29.5730011 L75.7413368,29.5730011 L75.7413368,13.6667461 Z M77.6363059,6.94821968 C77.0046495,6.94821968 76.4878398,7.17791289 76.057165,7.57987602 C75.6264902,7.98183914 75.396797,8.49864887 75.396797,9.1303052 C75.396797,9.73324988 75.6264902,10.2500596 76.057165,10.6520227 C76.4878398,11.0539859 77.0046495,11.2549674 77.6363059,11.2549674 C78.2679622,11.2549674 78.8134836,11.0252742 79.2154467,10.6520227 C79.6461215,10.2500596 79.8758147,9.73324988 79.8758147,9.1303052 C79.8758147,8.52736052 79.6461215,8.01055079 79.2154467,7.57987602 C78.8421952,7.17791289 78.2966738,6.94821968 77.6363059,6.94821968 L77.6363059,6.94821968 Z M92.7099229,13.5231879 C92.0208433,13.3796296 91.303052,13.2934947 90.6139724,13.2934947 C88.9199849,13.2934947 87.3695557,13.6667461 86.0775314,14.4132491 C84.7855071,15.159752 83.7518876,16.1933715 83.0915197,17.4853958 C82.40244,18.8061318 82.0579002,20.3278493 82.0579002,22.0792601 C82.0579002,23.6009776 82.40244,24.9504252 83.062808,26.1850262 C83.723176,27.3909156 84.6419488,28.3671118 85.8765499,29.0274797 C87.0537276,29.6878477 88.4318868,30.0323875 89.982316,30.0323875 C91.7624384,30.0323875 93.284156,29.6591361 94.4900453,28.9700564 L94.518757,28.9413448 L94.518757,25.4959466 L94.3751987,25.6107932 C93.8296773,26.0127563 93.198021,26.3572961 92.5663647,26.5582777 C91.9059967,26.7879709 91.303052,26.9028175 90.7862423,26.9028175 C89.2932364,26.9028175 88.1160587,26.4721427 87.2834208,25.5246582 C86.4220712,24.6058854 85.9913965,23.3425727 85.9913965,21.7634319 C85.9913965,20.1268678 86.4220712,18.8348434 87.3121324,17.8873589 C88.2021936,16.9398744 89.3793713,16.4517764 90.8149539,16.4517764 C92.0208433,16.4517764 93.2554443,16.8537395 94.3751987,17.6576657 L94.518757,17.7725123 L94.518757,14.1261326 L94.4900453,14.0974209 C94.0019472,13.8964394 93.4564259,13.6667461 92.7099229,13.5231879 L92.7099229,13.5231879 Z M105.027221,13.4083413 C104.108449,13.4083413 103.247099,13.6954578 102.500596,14.2984025 C101.86894,14.8152122 101.438265,15.5617152 101.065014,16.4517764 L101.036302,16.4517764 L101.036302,13.6667461 L97.3037872,13.6667461 L97.3037872,29.5730011 L101.036302,29.5730011 L101.036302,21.4476037 C101.036302,20.0694444 101.323418,18.9209784 101.955075,18.0883405 C102.586731,17.2269909 103.390657,16.7963162 104.366853,16.7963162 C104.711393,16.7963162 105.055933,16.8824511 105.486608,16.9398744 C105.888571,17.054721 106.175688,17.1695676 106.376669,17.3131259 L106.520227,17.4279725 L106.520227,13.6954578 L106.434092,13.6667461 C106.175688,13.4944762 105.658878,13.4083413 105.027221,13.4083413 L105.027221,13.4083413 Z M115.191146,13.3222063 C112.578386,13.3222063 110.482435,14.0974209 109.018141,15.6191385 C107.525135,17.140856 106.807344,19.2368066 106.807344,21.8782785 C106.807344,24.3474805 107.553847,26.3572961 108.989429,27.8215904 C110.425012,29.257173 112.377404,30.0036759 114.817895,30.0036759 C117.373232,30.0036759 119.411759,29.2284613 120.876053,27.6780321 C122.369059,26.1276029 123.08685,24.060364 123.08685,21.505027 C123.08685,18.9784017 122.397771,16.9685861 120.9909,15.5042918 C119.641452,14.0399976 117.660348,13.3222063 115.191146,13.3222063 L115.191146,13.3222063 Z M118.177158,25.5533699 C117.488078,26.4434311 116.397035,26.8741059 115.047588,26.8741059 C113.69814,26.8741059 112.607097,26.4434311 111.831883,25.4959466 C111.056668,24.6058854 110.683417,23.3138611 110.683417,21.6772969 C110.683417,19.9833095 111.08538,18.6912852 111.831883,17.7725123 C112.607097,16.8537395 113.669429,16.394353 115.018876,16.394353 C116.339612,16.394353 117.373232,16.8250278 118.119735,17.715089 C118.866238,18.6051502 119.268201,19.8971745 119.268201,21.591162 C119.210777,23.3138611 118.894949,24.6633087 118.177158,25.5533699 L118.177158,25.5533699 Z M131.413229,20.270426 C130.236052,19.7823279 129.489549,19.4090765 129.145009,19.0932483 C128.857892,18.8061318 128.714334,18.4041687 128.714334,17.8873589 C128.714334,17.4566842 128.886604,17.0260094 129.317279,16.7388929 C129.747953,16.4517764 130.236052,16.3082181 130.953843,16.3082181 C131.585499,16.3082181 132.245867,16.4230647 132.877523,16.5953346 C133.50918,16.7676045 134.083413,17.0260094 134.542799,17.3705492 L134.686358,17.4853958 L134.686358,13.9825743 L134.600223,13.9538627 C134.169548,13.7815928 133.595315,13.6093228 132.906235,13.4657646 C132.217155,13.350918 131.585499,13.2934947 131.068689,13.2934947 C129.288567,13.2934947 127.824273,13.7241695 126.675807,14.671654 C125.527341,15.5617152 124.981819,16.7676045 124.981819,18.1744754 C124.981819,18.9209784 125.096666,19.5813464 125.355071,20.1268678 C125.613476,20.6723891 125.986727,21.1891989 126.503537,21.6198736 C127.020347,22.0218368 127.766849,22.4812232 128.800469,22.911898 C129.661819,23.2851494 130.322186,23.5722659 130.72415,23.8019592 C131.126113,24.0316524 131.384518,24.2900572 131.585499,24.4910388 C131.729057,24.720732 131.815192,25.0078485 131.815192,25.3811 C131.815192,26.4434311 131.011266,26.9602408 129.374702,26.9602408 C128.743046,26.9602408 128.082678,26.8453942 127.307463,26.5869894 C126.532248,26.3285845 125.814457,25.955333 125.211513,25.5246582 L125.067954,25.4098116 L125.067954,29.0561914 L125.154089,29.084903 C125.699611,29.3433079 126.359979,29.5155778 127.163905,29.7165594 C127.967831,29.8601176 128.685622,29.9749642 129.317279,29.9749642 C131.240959,29.9749642 132.8201,29.5442895 133.939855,28.596805 C135.088321,27.6780321 135.691265,26.5008544 135.691265,24.9791369 C135.691265,23.9168058 135.404149,22.9693213 134.772492,22.25153 C133.939855,21.5624503 132.906235,20.844659 131.413229,20.270426 L131.413229,20.270426 Z M145.539362,13.3222063 C142.926602,13.3222063 140.830651,14.0974209 139.366357,15.6191385 C137.902063,17.140856 137.15556,19.2368066 137.15556,21.8782785 C137.15556,24.3474805 137.902063,26.3572961 139.337645,27.8215904 C140.773228,29.257173 142.72562,30.0036759 145.16611,30.0036759 C147.721447,30.0036759 149.759975,29.2284613 151.224269,27.6780321 C152.717275,26.1276029 153.435066,24.060364 153.435066,21.505027 C153.435066,18.9784017 152.745986,16.9685861 151.339115,15.5042918 C149.989668,14.0399976 148.008564,13.3222063 145.539362,13.3222063 L145.539362,13.3222063 Z M148.496662,25.5533699 C147.807582,26.4434311 146.71654,26.8741059 145.367092,26.8741059 C143.988933,26.8741059 142.926602,26.4434311 142.151387,25.4959466 C141.376172,24.6058854 141.002921,23.3138611 141.002921,21.6772969 C141.002921,19.9833095 141.404884,18.6912852 142.151387,17.7725123 C142.926602,16.8537395 143.988933,16.394353 145.33838,16.394353 C146.630405,16.394353 147.692736,16.8250278 148.439239,17.715089 C149.185742,18.6051502 149.587705,19.8971745 149.587705,21.591162 C149.587705,23.3138611 149.214453,24.6633087 148.496662,25.5533699 L148.496662,25.5533699 Z M173.389664,16.7388929 L173.389664,16.7388929 L169.571014,16.7388929 L169.571014,24.2613456 C169.571014,25.2375417 169.743284,25.8979097 170.087824,26.2998728 C170.461075,26.7305476 170.977885,26.9028175 171.724388,26.9028175 C171.92537,26.9028175 172.183774,26.8741059 172.470891,26.7879709 C172.815431,26.701836 173.016412,26.5869894 173.246106,26.4434311 L173.389664,26.3285845 L173.389664,29.4007312 L173.360952,29.4294429 C173.131259,29.5442895 172.729296,29.6878477 172.183774,29.8026943 C171.666965,29.8888293 171.121443,29.9749642 170.604634,29.9749642 C167.446352,29.9749642 165.867211,28.2809768 165.867211,24.9217136 L165.867211,16.7388929 L160.239727,16.7388929 L160.239727,29.5730011 L156.478501,29.5730011 L156.478501,16.7101812 L153.865741,16.7101812 L153.865741,13.6667461 L156.478501,13.6667461 L156.478501,11.455949 C156.478501,10.3361946 156.736906,9.35999841 157.225004,8.49864887 C157.713102,7.60858767 158.37347,6.94821968 159.263531,6.4601216 C160.153592,6.02944683 161.129789,5.77104197 162.249543,5.77104197 C163.139604,5.77104197 163.828684,5.88588857 164.345494,6.05815848 L164.431629,6.08687013 L164.431629,9.33128676 L164.28807,9.24515181 C163.685126,8.98674694 163.139604,8.87190034 162.622795,8.87190034 C161.876292,8.87190034 161.273347,9.10159355 160.871384,9.56097997 C160.469421,10.0203664 160.239727,10.7381577 160.239727,11.6569305 L160.239727,13.6667461 L165.867211,13.6667461 L165.867211,10.0777897 L165.953346,10.0490781 L169.513591,8.98674694 L169.628437,8.95803529 L169.628437,13.6667461 L173.389664,13.6667461 L173.389664,16.7388929 Z M7.10542736e-15,8.8817842e-16 L17.6002424,8.8817842e-16 L17.6002424,17.6002424 L7.10542736e-15,17.6002424 L7.10542736e-15,8.8817842e-16 Z M19.4377881,8.8817842e-16 L37.0380305,8.8817842e-16 L37.0380305,17.6002424 L19.4377881,17.6002424 L19.4377881,8.8817842e-16 Z M7.10542736e-15,19.4377881 L17.6002424,19.4377881 L17.6002424,37.0380305 L7.10542736e-15,37.0380305 L7.10542736e-15,19.4377881 Z M19.4377881,19.4377881 L37.0380305,19.4377881 L37.0380305,37.0380305 L19.4377881,37.0380305 L19.4377881,19.4377881 Z" id="Combined-Shape"></path>
                </g>
            </g>
        </g>
    </g>
</svg>