<?xml version="1.0" encoding="UTF-8"?>
<svg width="142px" height="35px" viewBox="0 0 142 35" version="1.1" xmlns="http://www.w3.org/2000/svg" xmlns:xlink="http://www.w3.org/1999/xlink">
    <!-- Generator: Sketch 47 (45396) - http://www.bohemiancoding.com/sketch -->
    <title>Tenaris</title>
    <desc>Created with Sketch.</desc>
    <defs></defs>
    <g id="Page-1" stroke="none" stroke-width="1" fill="none" fill-rule="evenodd">
        <g id="clients" transform="translate(-131.000000, -7.000000)" fill-rule="nonzero" fill="#DED5DA">
            <g id="Tenaris" transform="translate(131.000000, 7.000000)">
                <path d="M52.1498641,9.63376393 L52.1498641,14.6953906 L45.5967362,14.6953906 L45.5967362,33.7486965 L40.1275826,33.7486965 L40.1275826,14.6953906 L33.5749286,14.6953906 L33.5749286,9.63376393 L52.1498641,9.63376393 Z M62.7164213,27.1972262 L66.6739335,29.2109311 C66.0600402,30.1311841 65.4454288,31.0187394 64.5249404,31.8717025 C62.9891324,33.3049177 60.6693103,34.3969481 57.8033531,34.3969481 C52.5147431,34.3969481 48.796058,31.0187394 48.796058,25.1842344 C48.796058,20.8855352 50.9116451,15.3583325 57.9391167,15.3583325 C58.9970279,15.3583325 62.0681661,15.4606881 64.3541115,17.9169855 C66.6739335,20.4074016 66.8108834,23.8884397 66.8781709,25.9009608 L54.1524309,25.9009608 C54.1185519,28.1191384 55.3807004,30.3368429 58.2127738,30.3368429 C61.0787311,30.3368429 62.0681661,28.4596124 62.7164213,27.1972262 Z M55.2439859,20.2714015 C54.5279726,21.0563648 54.3566683,21.8759204 54.1867879,22.6258174 L61.453562,22.6258174 C61.3512069,21.8756837 61.2152055,20.8852985 60.4645975,20.1003351 C59.816585,19.4523198 58.8264343,19.1116086 57.9059435,19.1116086 C56.6435597,19.1116086 55.7562397,19.7257423 55.2439859,20.2714015 Z M74.3660043,17.5416816 C74.8787287,16.996259 75.2194429,16.5870735 76.1406395,16.1432961 C76.960199,15.8021106 78.1199924,15.4943329 79.3814278,15.4943329 C80.4407628,15.4943329 81.6337221,15.6999919 82.5554015,16.2112961 C84.4323894,17.2004968 84.908632,18.8040673 84.908632,21.5676692 L84.908632,33.7484601 L79.6896843,33.7484601 L79.6896843,23.7173733 C79.6896843,22.1130916 79.6558004,21.5335505 79.4503745,21.0566016 C79.0416669,20.1008091 78.1199924,19.6913864 77.097144,19.6913864 C74.3325983,19.6913864 74.3325983,21.908854 74.3325983,24.1263223 L74.3325983,33.7486953 L69.0781051,33.7486953 L69.0781051,15.9724665 L74.3660043,15.9724665 L74.3660043,17.5416816 Z M92.827683,20.9881274 L87.572957,20.9881274 C87.6757877,19.7596238 87.8463812,18.2918155 89.4499498,17.0299037 C91.0871695,15.7341107 93.201095,15.4606881 95.2839794,15.4606881 C97.4682828,15.4606881 102.755229,15.972703 102.755229,20.5794159 L102.755229,30.9502658 C102.755229,32.860667 102.857353,33.1345618 103.26748,33.7486953 L98.1155847,33.7486953 L98.1155847,32.1105321 C96.7847247,33.1002073 95.2839794,34.2254085 92.6568542,34.2254085 C88.5633405,34.2254085 86.8228245,31.2923989 86.8228245,28.8017456 C86.8228245,25.9348399 89.1080519,24.298573 90.5749181,23.6832548 C92.0090769,23.069358 95.3863395,22.4554615 97.6042793,22.0453281 L97.6042793,21.090957 C97.5362811,20.2716387 97.4682828,18.9064235 95.5908121,18.9064235 C93.2700417,18.9064235 92.963209,20.3396389 92.827683,20.9881274 Z M97.6045146,25.2185889 L94.2267814,26.3449738 C93.340177,26.6859232 91.9740092,27.1972262 91.9740092,28.5619676 C91.9740092,29.4144577 92.725095,30.3704867 93.9533572,30.3704867 C94.6018477,30.3704867 95.2162237,30.1314219 95.7628296,29.7907101 C97.5026373,28.6986797 97.570638,27.0612272 97.6045146,25.2185889 Z M110.819528,17.7814593 C111.979556,16.7910739 113.241945,16.0063477 115.971423,15.7341107 L115.971423,20.3739936 L114.230905,20.6469422 C111.706132,21.090957 110.955764,21.4660243 110.955764,23.7173733 L110.955764,33.7486953 L105.701274,33.7486953 L105.701274,15.9035183 L110.819528,15.9035183 L110.819528,17.7814593 Z M117.98726,9.62665611 L123.172569,9.62665611 L123.172569,13.686998 L117.98726,13.686998 L117.98726,9.62665611 Z M123.172569,15.9035183 L123.172569,33.7484601 L117.98726,33.7484601 L117.98726,15.9035183 L123.172569,15.9035183 Z M127.621244,27.7421753 C129.054697,29.1426951 130.828859,30.2006063 132.807266,30.2006063 C134.070125,30.2006063 135.979816,29.7907101 135.979816,28.4596124 C135.979816,27.8459543 135.60522,27.6066493 135.296493,27.4360557 C134.512476,27.0268703 133.285868,26.9238044 132.262079,26.7539215 C131.477114,26.6179226 130.657795,26.4470937 129.873781,26.2077887 C128.780802,25.9009608 127.689482,25.4576562 126.904755,24.6734021 C126.11979,23.8884397 125.57342,22.6596986 125.57342,21.3283654 C125.57342,18.3953559 128.099138,15.3583325 133.080685,15.3583325 C137.277738,15.3583325 139.802037,17.1668521 141.029829,18.0188677 L137.78857,21.0222461 C136.116047,19.7259791 134.546838,19.2476087 133.319517,19.2476087 C131.270982,19.2476087 130.794504,20.0662164 130.794504,20.5794159 C130.794504,21.6024986 131.919943,21.8067358 133.626107,22.1130916 C137.209737,22.7622915 141.371251,23.7173733 141.371251,27.9485448 C141.371251,32.1444136 137.141503,34.192 132.943498,34.192 C127.99608,34.192 125.436953,31.8029936 124.312462,30.7465014 L127.621244,27.7421753 Z M0.156298199,23.4370801 L27.0220368,23.4370801 L27.0220368,24.2663501 L0.156298199,24.2663501 L0.156298199,23.4370801 Z M0.156298199,9.63376399 L27.0220368,9.63376399 L27.0220368,14.6963387 L0.156298199,14.6963387 L0.156298199,9.63376399 Z M0.156298199,2.02770003 L27.0220368,2.02770003 L27.0220368,3.29506135 L0.156298199,3.29506135 L0.156298199,2.02770003 Z M0.156298199,21.0400159 L27.0220368,21.0400159 L27.0220368,22.3059557 L0.156298199,22.3059557 L0.156298199,21.0400159 Z M0.156298199,4.84721818 L27.0220368,4.84721818 L27.0220368,7.38028231 L0.156298199,7.38028231 L0.156298199,4.84721818 Z M0.156298199,16.9545586 L27.0220368,16.9545586 L27.0220368,19.4876228 L0.156298199,19.4876228 L0.156298199,16.9545586 Z M0.156298199,0.15165464 L27.0220368,0.15165464 L27.0220368,0.980924567 L0.156298199,0.980924567 L0.156298199,0.15165464 Z" id="Combined-Shape"></path>
            </g>
        </g>
    </g>
</svg>