<?xml version="1.0" encoding="UTF-8"?>
<svg width="49px" height="50px" viewBox="0 0 49 50" version="1.1" xmlns="http://www.w3.org/2000/svg" xmlns:xlink="http://www.w3.org/1999/xlink">
    <!-- Generator: Sketch 47 (45396) - http://www.bohemiancoding.com/sketch -->
    <title>VW</title>
    <desc>Created with Sketch.</desc>
    <defs></defs>
    <g id="Page-1" stroke="none" stroke-width="1" fill="none" fill-rule="evenodd">
        <g id="clients" transform="translate(-350.000000, -1.000000)" fill="#DED5DA">
            <path d="M374.118793,1.89917142 C387.392849,1.89917142 398.21875,12.7238672 398.21875,26.0179044 C398.21875,39.2721017 387.392849,50.1166576 374.118793,50.1166576 C360.844586,50.1166576 350,39.2721017 350,26.0179044 C350,12.7238672 360.844586,1.89796778 374.118793,1.89796778 L374.118793,1.89917142 Z M374.118793,4.96004477 L374.119967,4.96004477 C362.544255,4.96004477 353.081997,14.4222125 353.081997,26.0179044 C353.081997,37.5936144 362.544255,47.0359234 374.118793,47.0359234 C385.694503,47.0359234 395.156671,37.5936144 395.156671,26.0179044 C395.156671,14.4222128 385.694503,4.96004477 374.118793,4.96004477 Z M360.034712,14.6984495 L360.034712,14.6984498 C361.456971,12.9399218 363.175478,11.4588344 365.13023,10.332823 L370.444361,24.9706116 L377.912027,24.9706116 L383.204761,10.3927043 C385.022268,11.4588344 386.641775,12.8412227 387.985345,14.4622338 L380.360243,34.2742576 L377.595766,27.1239962 L370.345632,27.1239962 L367.581005,34.2742576 L360.034712,14.6984495 Z M391.028466,19.6177539 L391.028466,19.6177529 C391.778639,21.6124965 392.173435,23.7658204 392.173435,26.0179037 C392.173435,32.970708 388.204109,39.016025 382.43503,42.0377791 L391.028466,19.6177539 Z M378.681755,43.4990085 L378.681758,43.4990085 C377.219628,43.8739437 375.69852,44.071343 374.118793,44.071343 C372.439074,44.071343 370.819327,43.8552886 369.279501,43.4201699 L369.298308,43.0452323 L373.961266,30.9558041 L378.623078,43.0452323 L378.681755,43.4990085 Z M365.447602,41.8403823 C359.837224,38.7783057 356.044112,32.8130307 356.044112,26.0179044 C356.044112,23.9045416 356.400241,21.8887342 357.071424,20.0125499 L365.447602,41.8403823 Z M374.118793,7.94328323 C375.699723,7.94328323 377.25965,8.14068131 378.741639,8.53577847 L374.178735,21.1587225 L369.595699,8.5156172 C371.037969,8.14068157 372.558987,7.94328323 374.118793,7.94328323 Z" id="VW"></path>
        </g>
    </g>
</svg>